<mxfile host="app.diagrams.net" modified="2024-03-31T12:05:38.432Z" agent="Mozilla/5.0 (Windows NT 10.0; Win64; x64) AppleWebKit/537.36 (KHTML, like Gecko) Chrome/123.0.0.0 Safari/537.36" version="24.2.1" etag="Y_xbxW6TNueM73OGvbH-" type="github">
  <diagram name="Page-1" id="1Ix-D5Gxixza3nilXO_A">
    <mxGraphModel>
      <root>
        <mxCell id="0" />
        <mxCell id="1" parent="0" />
      </root>
    </mxGraphModel>
  </diagram>
</mxfile>
